<svg width="50" height="50" viewBox="0 0 50 50" fill="none" xmlns="http://www.w3.org/2000/svg">
<path d="M28.6135 49.9998C28.2358 49.9998 28.047 49.8201 28.047 49.4607V44.2309C28.047 43.8535 28.2358 43.6648 28.6135 43.6648H44.0232V42.2899H28.6135C28.2358 42.2899 28.047 42.1102 28.047 41.7508V40.1333C28.047 39.7739 28.2358 39.5941 28.6135 39.5941H49.0371C49.4147 39.5941 49.6036 39.7739 49.6036 40.1333V45.3361C49.6036 45.6956 49.4147 45.8753 49.0371 45.8753H33.6557V47.2771H49.1504C49.5281 47.2771 49.7169 47.4568 49.7169 47.8163V49.4607C49.7169 49.8201 49.5281 49.9998 49.1504 49.9998H28.6135ZM28.2453 38.1384C27.8487 38.1384 27.6504 37.9497 27.6504 37.5723V35.4696C27.6504 35.1102 27.8487 34.9305 28.2453 34.9305H43.2867C43.4189 34.4093 43.5133 33.8881 43.57 33.3669C43.6267 32.8278 43.6644 32.2437 43.6833 31.6147H28.7551C28.3774 31.6147 28.1886 31.4349 28.1886 31.0755V28.7032C28.1886 28.3438 28.3774 28.1641 28.7551 28.1641H48.6971C49.0937 28.1641 49.292 28.3438 49.292 28.7032L49.2353 30.8059C49.1976 31.5967 49.1315 32.3335 49.0371 33.0165C48.9615 33.6814 48.8388 34.3194 48.6688 34.9305H49.4053C49.8019 34.9305 50.0002 35.1102 50.0002 35.4696V37.5723C50.0002 37.9497 49.8019 38.1384 49.4053 38.1384H28.2453Z" fill="#3461E2"/>
<path d="M14.22 38.5161C14.22 39.1631 14.05 39.7382 13.7101 40.2414C13.3891 40.7447 12.9264 41.176 12.3221 41.5354C11.7367 41.8769 11.0191 42.1375 10.1693 42.3172C9.33837 42.4969 8.41303 42.5868 7.39327 42.5868C6.37351 42.5868 5.44817 42.4969 4.61725 42.3172C3.78634 42.1375 3.06873 41.8769 2.46442 41.5354C1.86012 41.176 1.38801 40.7447 1.04809 40.2414C0.727052 39.7382 0.566534 39.1631 0.566534 38.5161V37.95C0.566534 37.303 0.727052 36.7279 1.04809 36.2247C1.38801 35.7215 1.85068 35.2992 2.4361 34.9577C3.0404 34.5983 3.75801 34.3287 4.58893 34.149C5.43873 33.9693 6.37351 33.8794 7.39327 33.8794C8.41303 33.8794 9.33837 33.9693 10.1693 34.149C11.0002 34.3287 11.7178 34.5983 12.3221 34.9577C12.9264 35.2992 13.3891 35.7215 13.7101 36.2247C14.05 36.7279 14.22 37.303 14.22 37.95V38.5161ZM17.0527 43.6381C16.6561 43.6381 16.4578 43.4584 16.4578 43.099V28.5687C16.4578 28.1913 16.6561 28.0026 17.0527 28.0026H21.1034C21.5 28.0026 21.6983 28.1913 21.6983 28.5687V33.7177H23.0296C23.4073 33.7177 23.5962 33.9064 23.5962 34.2838V37.4378C23.5962 37.7973 23.4073 37.977 23.0296 37.977H21.6983V43.099C21.6983 43.4584 21.5 43.6381 21.1034 43.6381H17.0527ZM21.3867 46.1182C21.7644 46.1182 21.9532 46.2979 21.9532 46.6574V49.1914C21.9532 49.5508 21.7644 49.7306 21.3867 49.7306H1.67128C1.29359 49.7306 1.10474 49.5508 1.10474 49.1914V44.4468C1.10474 44.0874 1.29359 43.9077 1.67128 43.9077H5.94861C6.3263 43.9077 6.51514 44.0874 6.51514 44.4468V46.1182H21.3867ZM0 29.9705C0 29.6111 0.198287 29.4314 0.594861 29.4314H4.84387V27.4904C4.84387 27.113 5.04215 26.9243 5.43873 26.9243H9.34781C9.74439 26.9243 9.94268 27.113 9.94268 27.4904V29.4314H14.0217C14.4183 29.4314 14.6166 29.6111 14.6166 29.9705V32.5046C14.6166 32.864 14.4183 33.0437 14.0217 33.0437H0.594861C0.198287 33.0437 0 32.864 0 32.5046V29.9705ZM9.23451 38.2196C9.23451 37.8063 9.09287 37.4648 8.80961 37.1952C8.54522 36.9256 8.07311 36.7908 7.39327 36.7908C6.69455 36.7908 6.21299 36.9346 5.94861 37.2222C5.68423 37.4917 5.55203 37.8332 5.55203 38.2466C5.55203 38.6599 5.68423 39.0014 5.94861 39.271C6.23188 39.5405 6.71343 39.6753 7.39327 39.6753C8.092 39.6753 8.57355 39.5405 8.83793 39.271C9.10232 38.9834 9.23451 38.633 9.23451 38.2196Z" fill="#3461E2"/>
<path d="M28.6135 23.0755C28.2358 23.0755 28.047 22.8958 28.047 22.5364V17.3066C28.047 16.9291 28.2358 16.7404 28.6135 16.7404H44.0232V15.3656H28.6135C28.2358 15.3656 28.047 15.1859 28.047 14.8264V13.209C28.047 12.8495 28.2358 12.6698 28.6135 12.6698H49.0371C49.4147 12.6698 49.6036 12.8495 49.6036 13.209V18.4118C49.6036 18.7713 49.4147 18.951 49.0371 18.951H33.6557V20.3528H49.1504C49.5281 20.3528 49.7169 20.5325 49.7169 20.8919V22.5364C49.7169 22.8958 49.5281 23.0755 49.1504 23.0755H28.6135ZM28.2453 11.2141C27.8487 11.2141 27.6504 11.0254 27.6504 10.648V8.54529C27.6504 8.18586 27.8487 8.00614 28.2453 8.00614H43.2867C43.4189 7.48496 43.5133 6.96377 43.57 6.44259C43.6267 5.90343 43.6644 5.31935 43.6833 4.69034H28.7551C28.3774 4.69034 28.1886 4.51062 28.1886 4.15118V1.7789C28.1886 1.41946 28.3774 1.23975 28.7551 1.23975H48.6971C49.0937 1.23975 49.292 1.41946 49.292 1.7789L49.2353 3.8816C49.1976 4.67236 49.1315 5.40921 49.0371 6.09214C48.9615 6.7571 48.8388 7.3951 48.6688 8.00614H49.4053C49.8019 8.00614 50.0002 8.18586 50.0002 8.54529V10.648C50.0002 11.0254 49.8019 11.2141 49.4053 11.2141H28.2453Z" fill="#3461E2"/>
<path d="M14.22 11.5918C14.22 12.2388 14.05 12.8139 13.7101 13.3171C13.3891 13.8203 12.9264 14.2517 12.3221 14.6111C11.7367 14.9526 11.0191 15.2132 10.1693 15.3929C9.33837 15.5726 8.41303 15.6624 7.39327 15.6624C6.37351 15.6624 5.44817 15.5726 4.61725 15.3929C3.78634 15.2132 3.06873 14.9526 2.46442 14.6111C1.86012 14.2517 1.38801 13.8203 1.04809 13.3171C0.727052 12.8139 0.566534 12.2388 0.566534 11.5918V11.0257C0.566534 10.3787 0.727052 9.80363 1.04809 9.30042C1.38801 8.79721 1.85068 8.37487 2.4361 8.03341C3.0404 7.67397 3.75801 7.40439 4.58893 7.22467C5.43873 7.04496 6.37351 6.9551 7.39327 6.9551C8.41303 6.9551 9.33837 7.04496 10.1693 7.22467C11.0002 7.40439 11.7178 7.67397 12.3221 8.03341C12.9264 8.37487 13.3891 8.79721 13.7101 9.30042C14.05 9.80363 14.22 10.3787 14.22 11.0257V11.5918ZM17.0527 16.7138C16.6561 16.7138 16.4578 16.5341 16.4578 16.1746V1.64442C16.4578 1.26701 16.6561 1.07831 17.0527 1.07831H21.1034C21.5 1.07831 21.6983 1.26701 21.6983 1.64442V6.79335H23.0296C23.4073 6.79335 23.5962 6.98205 23.5962 7.35946V10.5135C23.5962 10.873 23.4073 11.0527 23.0296 11.0527H21.6983V16.1746C21.6983 16.5341 21.5 16.7138 21.1034 16.7138H17.0527ZM21.3867 19.1939C21.7644 19.1939 21.9532 19.3736 21.9532 19.7331V22.2671C21.9532 22.6265 21.7644 22.8062 21.3867 22.8062H1.67128C1.29359 22.8062 1.10474 22.6265 1.10474 22.2671V17.5225C1.10474 17.1631 1.29359 16.9834 1.67128 16.9834H5.94861C6.3263 16.9834 6.51514 17.1631 6.51514 17.5225V19.1939H21.3867ZM0 3.04622C0 2.68679 0.198287 2.50707 0.594861 2.50707H4.84387V0.566112C4.84387 0.188704 5.04215 0 5.43873 0H9.34781C9.74439 0 9.94268 0.188704 9.94268 0.566112V2.50707H14.0217C14.4183 2.50707 14.6166 2.68679 14.6166 3.04622V5.58025C14.6166 5.93969 14.4183 6.11941 14.0217 6.11941H0.594861C0.198287 6.11941 0 5.93969 0 5.58025V3.04622ZM9.23451 11.2953C9.23451 10.8819 9.09287 10.5405 8.80961 10.2709C8.54522 10.0013 8.07311 9.86653 7.39327 9.86653C6.69455 9.86653 6.21299 10.0103 5.94861 10.2979C5.68423 10.5674 5.55203 10.9089 5.55203 11.3223C5.55203 11.7356 5.68423 12.0771 5.94861 12.3466C6.23188 12.6162 6.71343 12.751 7.39327 12.751C8.092 12.751 8.57355 12.6162 8.83793 12.3466C9.10232 12.0591 9.23451 11.7086 9.23451 11.2953Z" fill="#3461E2"/>
</svg>
