<svg width="100" height="24" viewBox="0 0 100 24" fill="none" xmlns="http://www.w3.org/2000/svg">
<path d="M78.7592 24.0002C78.3841 24.0002 78.1966 23.8133 78.1966 23.4395V18.0003C78.1966 17.6077 78.3841 17.4115 78.7592 17.4115H94.0632V15.9816H78.7592C78.3841 15.9816 78.1966 15.7947 78.1966 15.4208V13.7386C78.1966 13.3648 78.3841 13.1778 78.7592 13.1778H99.0426C99.4177 13.1778 99.6052 13.3648 99.6052 13.7386V19.1498C99.6052 19.5236 99.4177 19.7105 99.0426 19.7105H83.7668V21.1685H99.1551C99.5302 21.1685 99.7178 21.3554 99.7178 21.7292V23.4395C99.7178 23.8133 99.5302 24.0002 99.1551 24.0002H78.7592ZM78.3935 11.6638C77.9997 11.6638 77.8027 11.4676 77.8027 11.0751V8.88814C77.8027 8.51431 77.9997 8.3274 78.3935 8.3274H93.3317C93.463 7.78534 93.5568 7.24329 93.6131 6.70124C93.6693 6.14049 93.7068 5.53301 93.7256 4.87881H78.8999C78.5248 4.87881 78.3372 4.6919 78.3372 4.31807V1.85078C78.3372 1.47695 78.5248 1.29004 78.8999 1.29004H98.705C99.0988 1.29004 99.2958 1.47695 99.2958 1.85078L99.2395 4.03769C99.202 4.86012 99.1364 5.62647 99.0426 6.33675C98.9676 7.02834 98.8457 7.69189 98.6769 8.3274H99.4083C99.8022 8.3274 99.9991 8.51431 99.9991 8.88814V11.0751C99.9991 11.4676 99.8022 11.6638 99.4083 11.6638H78.3935Z" fill="#3461E2"/>
<path d="M65.8021 12.056C65.8021 12.7289 65.6333 13.3271 65.2957 13.8504C64.9769 14.3738 64.5174 14.8224 63.9172 15.1962C63.3358 15.5513 62.6231 15.8224 61.7792 16.0093C60.954 16.1962 60.035 16.2897 59.0222 16.2897C58.0094 16.2897 57.0905 16.1962 56.2652 16.0093C55.44 15.8224 54.7273 15.5513 54.1272 15.1962C53.527 14.8224 53.0582 14.3738 52.7206 13.8504C52.4017 13.3271 52.2423 12.7289 52.2423 12.056V11.4672C52.2423 10.7944 52.4017 10.1962 52.7206 9.67286C53.0582 9.1495 53.5177 8.71025 54.0991 8.35511C54.6992 7.98128 55.4119 7.70091 56.2371 7.51399C57.0811 7.32708 58.0094 7.23362 59.0222 7.23362C60.035 7.23362 60.954 7.32708 61.7792 7.51399C62.6044 7.70091 63.3171 7.98128 63.9172 8.35511C64.5174 8.71025 64.9769 9.1495 65.2957 9.67286C65.6333 10.1962 65.8021 10.7944 65.8021 11.4672V12.056ZM68.6153 17.3831C68.2214 17.3831 68.0245 17.1962 68.0245 16.8224V1.71027C68.0245 1.31775 68.2214 1.12149 68.6153 1.12149H72.6382C73.0321 1.12149 73.229 1.31775 73.229 1.71027V7.06539H74.5512C74.9263 7.06539 75.1139 7.26166 75.1139 7.65418V10.9345C75.1139 11.3084 74.9263 11.4953 74.5512 11.4953H73.229V16.8224C73.229 17.1962 73.0321 17.3831 72.6382 17.3831H68.6153ZM72.9195 19.9625C73.2946 19.9625 73.4822 20.1495 73.4822 20.5233V23.1588C73.4822 23.5326 73.2946 23.7195 72.9195 23.7195H53.3395C52.9644 23.7195 52.7768 23.5326 52.7768 23.1588V18.2242C52.7768 17.8504 52.9644 17.6635 53.3395 17.6635H57.5875C57.9626 17.6635 58.1501 17.8504 58.1501 18.2242V19.9625H72.9195ZM51.6797 3.16821C51.6797 2.79438 51.8766 2.60747 52.2705 2.60747H56.4903V0.588782C56.4903 0.196261 56.6872 0 57.0811 0H60.9633C61.3572 0 61.5541 0.196261 61.5541 0.588782V2.60747H65.6052C65.999 2.60747 66.1959 2.79438 66.1959 3.16821V5.80372C66.1959 6.17755 65.999 6.36446 65.6052 6.36446H52.2705C51.8766 6.36446 51.6797 6.17755 51.6797 5.80372V3.16821ZM60.8508 11.7476C60.8508 11.3177 60.7101 10.9626 60.4288 10.6822C60.1662 10.4018 59.6974 10.2616 59.0222 10.2616C58.3283 10.2616 57.85 10.4112 57.5875 10.7102C57.3249 10.9906 57.1936 11.3458 57.1936 11.7757C57.1936 12.2056 57.3249 12.5607 57.5875 12.8411C57.8688 13.1214 58.347 13.2616 59.0222 13.2616C59.7161 13.2616 60.1944 13.1214 60.4569 12.8411C60.7195 12.542 60.8508 12.1775 60.8508 11.7476Z" fill="#3461E2"/>
<path d="M27.0795 24.0002C26.7044 24.0002 26.5169 23.8133 26.5169 23.4395V18.0003C26.5169 17.6077 26.7044 17.4115 27.0795 17.4115H42.3835V15.9816H27.0795C26.7044 15.9816 26.5169 15.7947 26.5169 15.4208V13.7386C26.5169 13.3648 26.7044 13.1778 27.0795 13.1778H47.3629C47.738 13.1778 47.9255 13.3648 47.9255 13.7386V19.1498C47.9255 19.5236 47.738 19.7105 47.3629 19.7105H32.0871V21.1685H47.4754C47.8505 21.1685 48.0381 21.3554 48.0381 21.7292V23.4395C48.0381 23.8133 47.8505 24.0002 47.4754 24.0002H27.0795ZM26.7138 11.6638C26.32 11.6638 26.123 11.4676 26.123 11.0751V8.88814C26.123 8.51431 26.32 8.3274 26.7138 8.3274H41.652C41.7833 7.78534 41.8771 7.24329 41.9334 6.70124C41.9896 6.14049 42.0271 5.53301 42.0459 4.87881H27.2202C26.8451 4.87881 26.6576 4.6919 26.6576 4.31807V1.85078C26.6576 1.47695 26.8451 1.29004 27.2202 1.29004H47.0253C47.4192 1.29004 47.6161 1.47695 47.6161 1.85078L47.5598 4.03769C47.5223 4.86012 47.4567 5.62647 47.3629 6.33675C47.2879 7.02834 47.166 7.69189 46.9972 8.3274H47.7286C48.1225 8.3274 48.3194 8.51431 48.3194 8.88814V11.0751C48.3194 11.4676 48.1225 11.6638 47.7286 11.6638H26.7138Z" fill="#3461E2"/>
<path d="M14.1224 12.056C14.1224 12.7289 13.9536 13.3271 13.616 13.8504C13.2972 14.3738 12.8377 14.8224 12.2375 15.1962C11.6561 15.5513 10.9434 15.8224 10.0995 16.0093C9.27427 16.1962 8.35528 16.2897 7.34252 16.2897C6.32976 16.2897 5.41077 16.1962 4.58556 16.0093C3.76034 15.8224 3.04766 15.5513 2.44751 15.1962C1.84735 14.8224 1.37848 14.3738 1.04089 13.8504C0.722061 13.3271 0.562645 12.7289 0.562645 12.056V11.4672C0.562645 10.7944 0.722061 10.1962 1.04089 9.67286C1.37848 9.1495 1.83797 8.71025 2.41937 8.35511C3.01953 7.98128 3.73221 7.70091 4.55742 7.51399C5.40139 7.32708 6.32976 7.23362 7.34252 7.23362C8.35528 7.23362 9.27427 7.32708 10.0995 7.51399C10.9247 7.70091 11.6374 7.98128 12.2375 8.35511C12.8377 8.71025 13.2972 9.1495 13.616 9.67286C13.9536 10.1962 14.1224 10.7944 14.1224 11.4672V12.056ZM16.9356 17.3831C16.5418 17.3831 16.3448 17.1962 16.3448 16.8224V1.71027C16.3448 1.31775 16.5418 1.12149 16.9356 1.12149H20.9585C21.3524 1.12149 21.5493 1.31775 21.5493 1.71027V7.06539H22.8715C23.2466 7.06539 23.4342 7.26166 23.4342 7.65418V10.9345C23.4342 11.3084 23.2466 11.4953 22.8715 11.4953H21.5493V16.8224C21.5493 17.1962 21.3524 17.3831 20.9585 17.3831H16.9356ZM21.2399 19.9625C21.6149 19.9625 21.8025 20.1495 21.8025 20.5233V23.1588C21.8025 23.5326 21.6149 23.7195 21.2399 23.7195H1.6598C1.28471 23.7195 1.09716 23.5326 1.09716 23.1588V18.2242C1.09716 17.8504 1.28471 17.6635 1.6598 17.6635H5.90777C6.28287 17.6635 6.47042 17.8504 6.47042 18.2242V19.9625H21.2399ZM0 3.16821C0 2.79438 0.196926 2.60747 0.590777 2.60747H4.81061V0.588782C4.81061 0.196261 5.00754 0 5.40139 0H9.28364C9.67749 0 9.87442 0.196261 9.87442 0.588782V2.60747H13.9255C14.3193 2.60747 14.5162 2.79438 14.5162 3.16821V5.80372C14.5162 6.17755 14.3193 6.36446 13.9255 6.36446H0.590777C0.196926 6.36446 0 6.17755 0 5.80372V3.16821ZM9.17111 11.7476C9.17111 11.3177 9.03045 10.9626 8.74913 10.6822C8.48656 10.4018 8.01769 10.2616 7.34252 10.2616C6.64859 10.2616 6.17034 10.4112 5.90777 10.7102C5.64521 10.9906 5.51392 11.3458 5.51392 11.7757C5.51392 12.2056 5.64521 12.5607 5.90777 12.8411C6.1891 13.1214 6.66734 13.2616 7.34252 13.2616C8.03645 13.2616 8.51469 13.1214 8.77726 12.8411C9.03983 12.542 9.17111 12.1775 9.17111 11.7476Z" fill="#3461E2"/>
</svg>
